#!OML:ASF F:\VICON\USERDATA\INSTALL\rory3\rory3.ASF
:FULLY-SPECIFIED
:DEGREES
9
root -0.8657171381115131 17.984696076353664 -28.179784621410363 4.971794447318839 0.8585102084048484 -7.071364417182199
lfemur -38.34458924504388 5.4435563253905235 -13.138611920476611
ltibia 90.00428506702312
lfoot 0.7176153039825226 -6.813020288154892
ltoes -4.3523764726139085
rfemur -3.309517153012667 2.4629965680875685 34.711390441196464
rtibia 39.91510807461458
rfoot -8.798320106098856 -11.239692431314124
rtoes -21.183883996509596
lowerback 16.493294712547367 1.7412445058855135 5.052170740102028
upperback -1.1298097326778882 3.648472206633836 3.0982304994905854
thorax -10.42759112274421 1.550362404513898 -0.3951620097690922
lowerneck -18.188514546164207 -4.611022623970555 -2.4951721239514453
upperneck 14.112897955166746 -5.866094694516946 1.4099518468314194
head 7.433487028636575 -2.802952527961458 0.18512573146778066
lclavicle 7.933864293722376e-17 -3.510693869994398e-16
lhumerus -63.69409135812127 -9.768547000492234 100.1829913355368
lradius 102.92700571492253
lwrist 32.687502819739684
lhand -26.13549324081746 -0.37361759296544217
lfingers 7.12502
lthumb 0.41492875923465555 29.60570838356299
rclavicle 7.933864293722376e-17 -3.510693869994398e-16
rhumerus -39.97891023436899 11.171395425198355 -94.2672066101774
rradius 114.21199166965606
rwrist -11.502895062566076
rhand -20.314281349969768 40.887994710817196
rfingers 7.12502
rthumb 6.036348652159935 10.993995423262517
10
root -0.8517335028018845 18.10559411692129 -27.645984840641013 4.751785583733527 1.2618691487192004 -6.948224841614702
lfemur -38.812589030327935 4.800027808567089 -13.748510986058971
ltibia 86.43078648760002
lfoot -0.9653885315544839 -5.685792161104405
ltoes -8.074642651407284
rfemur -1.2175580534824206 2.0964573557354464 34.33539108966382
rtibia 38.48360856796977
rfoot -4.751412923934168 -9.724814691193274
rtoes -20.941784154113254
lowerback 16.33829556848353 2.023012779037188 5.572819418651468
upperback -0.6125622799157207 4.019650835511308 2.552354593209368
thorax -9.670051530629346 1.7098809550766356 -1.3541529384250823
lowerneck -21.118196545473523 -4.956130079261516 -1.551417941567793
upperneck 15.292890686393203 -6.528111369817906 1.218203605217366
head 8.296486294157111 -3.045179856423256 -0.19533205488621375
lclavicle 7.933866049857448e-17 -3.510693885634718e-16
lhumerus -63.0724917748711 -10.343906077196719 99.24589450369135
lradius 103.02900560539813
lwrist 33.63309982070181
lhand -25.969694213980734 0.7585932760327976
lfingers 7.12502
lthumb 0.5750277862110373 30.737604244762245
rclavicle 7.933866049857448e-17 -3.510693885634718e-16
rhumerus -38.30341182609091 10.662596308046968 -94.36280636565944
rradius 114.6549909146155
rwrist -10.848397445893358
rhand -20.168082084622874 41.38529210093661
rfingers 7.12502
rthumb 6.177537916923532 11.495392770456567
11
root -0.8369058895030329 18.21149240059467 -27.11458505888612 4.440757190292599 1.907877451556553 -6.850105179809555
lfemur -39.004788942147655 3.9455697778848453 -14.256210208220239
ltibia 82.67658798001085
lfoot -1.565399116409788 -4.827203587695004
ltoes -9.088051611061218
rfemur 0.8283770658585148 1.5152886045959104 33.98459169467005
rtibia 36.973809088310276
rfoot 0.042030238422325006 -8.366816717040784
rtoes -20.217584625557244
lowerback 16.28689585232301 1.7965641668527919 5.371299930125051
upperback -1.655794091740808 3.7791117240554497 2.8456723935142088
thorax -10.854985250748824 1.5680622436874212 -0.879051460024546
lowerneck -16.391125589766435 -4.685632073824972 -2.308535252044005
upperneck 14.114897942846792 -6.062183709742721 1.415951791810222
head 7.127244386443271 -2.901571440288184 0.1756249615504169
lclavicle 7.933869018844588e-17 -3.510692947216927e-16
lhumerus -66.13548972129212 -7.959189904020402 99.290894351555
lradius 103.34300526823476
lwrist 34.25419785083884
lhand -25.17599887260373 0.78697417248183
lfingers 7.12502
lthumb 1.3415611275003707 30.762504153715206
rclavicle 7.933869018844588e-17 -3.510692947216927e-16
rhumerus -40.88030937804067 12.014993961418702 -94.7807052967886
rradius 115.47798951191032
rwrist -10.383099140258807
rhand -19.99688294490066 41.534491317919944
rfingers 7.12502
rthumb 6.3428370561360765 11.649491955144647
12
root -0.8153654512732929 18.344790240194868 -26.550885290396778 4.351147653153924 2.6398255286169716 -6.456556536277061
lfemur -38.89398899298209 2.910372163763356 -15.05630898240031
ltibia 78.51288963521063
lfoot -0.279082006406968 -4.086174818953729
ltoes -3.1899876658998005
rfemur 2.693030263231009 1.0447096158125193 33.27029292658555
rtibia 35.41440962574519
rfoot 5.679109813360238 -7.30794829664989
rtoes -19.874584848845416
lowerback 15.596199666485012 1.793774183951513 5.517209559794024
upperback -1.3225776653316628 3.693512040258068 2.53629471364815
thorax -10.054396250092546 1.5384225130036246 -1.2442032905589617
lowerneck -18.027915532924258 -4.7846413437631305 -1.9148218508041988
upperneck 14.748294041116994 -6.257682727931498 1.325782618687196
head 7.601512991633279 -2.962000773809822 0.014025275052412578
lclavicle 7.933874527253058e-17 -3.5106934242452936e-16
lhumerus -66.05448977559831 -7.436700742474007 98.58999672116286
lradius 103.31800529507898
lwrist 35.14959501101385
lhand -24.652501945287543 0.736105358082557
lfingers 7.12502
lthumb 1.8472080543623792 30.70790435336051
rclavicle 7.933874527253058e-17 -3.5106934242452936e-16
rhumerus -40.07101014687418 12.345293388295882 -94.7497053760779
rradius 115.90898877732234
rwrist -9.850131081040995
rhand -19.68958448907916 41.290092600555816
rfingers 7.12502
rthumb 6.639475511405374 11.41419320006934
13
root -0.7902471063546344 18.474388139761157 -25.965385530860587 4.374087534662252 2.774785174057337 -6.170907520840471
lfemur -38.549589150991004 2.4539632156748703 -15.725807956670476
ltibia 74.1038913879247
lfoot -2.6981783326448032 -3.129946407778118
ltoes -11.419599217539442
rfemur 4.5192794771343365 1.4233688021203057 32.68009394447232
rtibia 33.96591012495923
rfoot 11.849095517239046 -6.9471888348271715
rtoes -15.737387542104358
lowerback 14.60670513067106 1.9733030836886072 5.555499462610991
upperback -1.280928112003709 3.8377415074788113 2.3240663052249393
thorax -9.411615081304328 1.622001753575549 -1.4831825251842166
lowerneck -18.30291384326663 -4.915540378556636 -1.873742539306354
upperneck 15.174091418198541 -6.462451699565853 1.3780421394525204
head 7.793518378498703 -3.045109857195284 -0.012907072719858581
lclavicle 7.933858621082288e-17 -3.510693385145478e-16
lhumerus -66.64308938097324 -6.6737219668483485 98.04089857756416
lradius 103.20300541856238
lwrist 35.91309258951913
lhand -24.601602244045147 1.2516424770860006
lfingers 7.12502
lthumb 1.8963277558307112 31.22300246989354
rclavicle 7.933858621082288e-17 -3.510693385145478e-16
rhumerus -40.15481006726432 12.851592509785164 -94.825605181947
rradius 116.30198810750082
rwrist -9.388402762406477
rhand -19.66058463480379 41.49409152994323
rfingers 7.12502
rthumb 6.6674853655453745 11.619092115984895
14
root -0.7683666769917941 18.57138656767728 -25.395685764835328 4.451697133784363 2.844814990078298 -5.893118478312472
lfemur -38.286889271516316 1.992444279363673 -16.32890703267099
ltibia 69.48619322360348
lfoot -2.727918312067836 -2.3225877492475
ltoes -13.505697075991653
rfemur 6.245028734297069 2.231007066604599 32.26679465726902
rtibia 32.55781061024961
rfoot 16.10689255256248 -7.374698197073067
rtoes -11.43259034446842
lowerback 13.598310699226099 2.154091975703693 5.452929722941706
upperback -1.4333264776022738 3.9792309848210063 2.179927386174278
thorax -8.985710932828791 1.7052009976002465 -1.5655122615081651
lowerneck -17.567518361718324 -4.984189872357818 -1.9556011673300526
upperneck 15.187391336270839 -6.572531146738345 1.4970110484737673
head 7.680931083528764 -3.0973492810438743 0.04374925521898976
lclavicle 7.933867439596434e-17 -3.510694049858072e-16
lhumerus -67.60498873607037 -5.815293344393808 97.59300009182778
lradius 103.05600557640638
lwrist 36.366591151211516
lhand -24.76020131314228 1.6091411727108365
lfingers 7.12502
lthumb 1.743158686736567 31.58180115793868
rclavicle 7.933867439596434e-17 -3.510694049858072e-16
rhumerus -40.66390958362027 13.444491481009734 -95.00730471720944
rradius 116.58798762004795
rwrist -8.951224354374423
rhand -20.084082506721778 43.071383252113634
rfingers 7.12502
rthumb 6.258627494653387 13.183783837473793
15
root -0.7514021194240159 18.6366855093569 -24.845585990760533 4.318337822626976 3.266833881370097 -5.591979516266031
lfemur -37.89668945053795 1.176586159718028 -16.885306180219793
ltibia 64.66769513910651
lfoot -2.1975886790005896 -1.681778813985619
ltoes -17.53409294051819
rfemur 7.930708008707715 2.6470361726090044 31.972395165005143
rtibia 31.527810965230998
rfoot 19.843489950793884 -7.280118338166337
rtoes -5.419284259048497
lowerback 13.033413818699263 2.1905717521333092 5.391859877942164
upperback -1.4899258706001657 3.9632410438873533 2.0055686937525135
thorax -8.714014665681267 1.705070998781459 -1.687861869661141
lowerneck -17.31201993156386 -5.08078916006639 -1.9723708862642992
upperneck 15.335490423978161 -6.738830311571049 1.6505096408479913
head 7.69541073563965 -3.163228554457834 0.08102955239225373
lclavicle 7.933870497030846e-17 -3.510693361685196e-16
lhumerus -68.30628826588583 -5.091424506007275 97.04400194789099
lradius 102.81600583411087
lwrist 36.481290787432286
lhand -24.88730056712869 1.778160556024149
lfingers 7.12502
lthumb 1.620459432457978 31.751800536332418
rclavicle 7.933870497030846e-17 -3.510693361685196e-16
rhumerus -40.69330955569032 13.814990838133538 -94.95920484023573
rradius 117.05298682751103
rwrist -10.34329928518841
rhand -18.77478908593729 46.98166273046456
rfingers 7.12502
rthumb 7.522570912727869 17.135462929828655
16
root -0.7331475954982976 18.74178380599592 -24.281186222558595 4.194238463639034 3.54750314400901 -5.462129963826195
lfemur -37.11778980789315 0.43597186665368526 -17.17870573070653
ltibia 59.47889720181524
lfoot -1.499339162116377 -1.785488641666233
ltoes -20.90308948197137
rfemur 9.390227380467437 3.2518448729491842 31.940295220366327
rtibia 30.968611157954875
rfoot 22.873187841234827 -6.599759353118927
rtoes -1.146607040502933
lowerback 12.643515971792883 2.207471648560406 5.46035970408378
upperback -1.5759149484073878 3.961741049428289 1.8806796303402962
thorax -8.569836646552337 1.702031026403633 -1.8411613786914038
lowerneck -17.542418515937985 -5.153858621276184 -1.866832655118182
upperneck 15.932386747087545 -6.870549650066327 1.6047100608431755
head 7.9303850901297155 -3.214867984923786 0.018581264718815937
lclavicle 7.933871419306766e-17 -3.5106935376381017e-16
lhumerus -68.95488783103396 -4.355475687005848 96.46010392194438
lradius 102.55000611973335
lwrist 36.241691547340785
lhand -24.53120265725802 1.1158729724566747
lfingers 7.12502
lthumb 1.964357342371643 31.086602968641156
rclavicle 7.933871419306766e-17 -3.5106935376381017e-16
rhumerus -40.842909413570595 14.423089782983684 -95.11490444199886
rradius 117.36298629915306
rwrist -10.99029692917198
rhand -17.57519511391173 47.130961946923115
rfingers 7.12502
rthumb 8.680324883778873 17.329361903942996
